# xmcd
#
# Track frame offsets:
#	150
#	22426
#	38889
#	52645
#	66346
#	85344
#	101826
#	115159
#	124649
#	139841
#	152668
#	167618
#
# Disc length: 2753 seconds
#
# Revision: 0
# Processed by: cddbd v1.5.2PL0 Copyright (c) Steve Scherf et al.
# Submitted via: dBpowerAMP V4.0
#
DISCID=a00abf0c
DTITLE=Bill Barwick - Sons of the Tumbleweed
DYEAR=2002
DGENRE=Country
TTITLE0=Carolyn In the Sunset
TTITLE1=An Old Puncher's Prayer
TTITLE2=George's Rule
TTITLE3=Tumbleweed Waltz (Instrumental)
TTITLE4=Lovin' Arms
TTITLE5=All You Got's Your Name
TTITLE6=Through The Gap
TTITLE7=Saturday Night Yodel
TTITLE8=Della and The Dealer
TTITLE9=San Antonio Rose
TTITLE10=Redheaded Stranger
TTITLE11=Sullivan's Letter
EXTD=
EXTT0=
EXTT1=
EXTT2=
EXTT3=
EXTT4=
EXTT5=
EXTT6=
EXTT7=
EXTT8=
EXTT9=
EXTT10=
EXTT11=
PLAYORDER=
